<?xml version="1.0" encoding="utf-8"?>
<!-- Generator: Adobe Illustrator 18.1.1, SVG Export Plug-In . SVG Version: 6.00 Build 0)  -->
<svg version="1.1" id="Layer_1" xmlns="http://www.w3.org/2000/svg" xmlns:xlink="http://www.w3.org/1999/xlink" x="0px" y="0px"
	 viewBox="0 0 400 400" enable-background="new 0 0 400 400" xml:space="preserve">
<g>
	<path fill="#FFFFFF" d="M200,395C92.5,395,5,307.5,5,200S92.5,5,200,5s195,87.5,195,195S307.5,395,200,395z"/>
	<path d="M200,10c25.7,0,50.5,5,74,14.9c22.6,9.6,42.9,23.3,60.4,40.7c17.5,17.5,31.2,37.8,40.7,60.4c9.9,23.4,14.9,48.3,14.9,74
		s-5,50.5-14.9,74c-9.6,22.6-23.3,42.9-40.7,60.4c-17.5,17.5-37.8,31.2-60.4,40.7c-23.4,9.9-48.3,14.9-74,14.9s-50.5-5-74-14.9
		c-22.6-9.6-42.9-23.3-60.4-40.7c-17.5-17.5-31.2-37.8-40.7-60.4C15,250.5,10,225.7,10,200s5-50.5,14.9-74
		c9.6-22.6,23.3-42.9,40.7-60.4c17.5-17.5,37.8-31.2,60.4-40.7C149.5,15,174.3,10,200,10 M200,0C89.5,0,0,89.5,0,200
		s89.5,200,200,200s200-89.5,200-200S310.5,0,200,0L200,0z"/>
</g>
</svg>
